<svg xmlns="http://www.w3.org/2000/svg" width="26.12663" height="36.36088" viewBox="0 0 26.12663 36.36088" creator="Katerina Limpitsouni"><path d="M.73571,10.16849c7.26897,5.96325,14.53794,11.9265,21.80691,17.88976,.74054,.60752,1.80776-.44776,1.06066-1.06066C16.33431,21.03434,9.06534,15.07109,1.79637,9.10783c-.74054-.60752-1.80776,.44776-1.06066,1.06066H.73571Z" fill="#d61111" origin="undraw"/><path d="M1.28399,30.26019C9.49043,22.17216,17.69686,14.08414,25.9033,5.99612c.6886-.67867-.37219-1.7392-1.06066-1.06066C16.6362,13.02348,8.42977,21.1115,.22333,29.19952c-.6886,.67867,.37219,1.7392,1.06066,1.06066h0Z" fill="#d61111"/><path d="M11.62322,.72418c-.23669,11.6375-.47337,23.27501-.71006,34.91251-.01964,.96562,1.48036,.96553,1.5,0,.23669-11.6375,.47337-23.27501,.71006-34.91251,.01964-.96562-1.48036-.96553-1.5,0h0Z" fill="#d61111"/></svg>